<svg width="1200" height="800" viewBox="0 0 1200 800" xmlns="http://www.w3.org/2000/svg">
  <g id="diagramm-1">
    <rect x="50" y="50" width="200" height="150" rx="10" ry="10" stroke="#333" fill="white" />
    <text x="120" y="95" font-size="14">Content - Strategie</text>
    <rect x="50" y="300" width="200" height="150" rx="10" ry="10" stroke="#333" fill="white" />
    <text x="120" y="345" font-size="14">SEO aufbauen</text>
    <rect x="50" y="500" width="200" height="150" rx="10" ry="10" stroke="#333" fill="white" />
    <text x="120" y="550" font-size="14">Zielgruppen verstehen</text>
    <rect x="50" y="700" width="200" height="150" rx="10" ry="10" stroke="#333" fill="white" />
    <text x="120" y="750" font-size="14">Merch - Ideen mit Glitzer</text>
    <rect x="350" y="50" width="200" height="150" rx="10" ry="10" stroke="#333" fill="white" />
    <text x="370" y="95" font-size="14">Wichtig + Nicht dringend</text>
    <rect x="350" y="300" width="200" height="150" rx="10" ry="10" stroke="#333" fill="white" />
    <text x="370" y="345" font-size="14">Buzzwort - Bingo</text>
    <rect x="350" y="500" width="200" height="150" rx="10" ry="10" stroke="#333" fill="white" />
    <text x="370" y="550" font-size="14">TikTok - Tanz mit dem</text>
    <rect x="350" y="700" width="200" height="150" rx="10" ry="10" stroke="#333" fill="white" />
    <text x="370" y="750" font-size="14">LinkedIn - Post für</text>
    <rect x="50" y="100" width="200" height="150" rx="10" ry="10" stroke="#333" fill="white" />
    <text x="120" y="145" font-size="14">Wichtig + Dringend</text>
    <rect x="50" y="350" width="200" height="150" rx="10" ry="10" stroke="#333" fill="white" />
    <text x="120" y="395" font-size="14">Chef will bis 4 Uhr</text>
    <rect x="50" y="550" width="200" height="150" rx="10" ry="10" stroke="#333" fill="white" />
    <text x="120" y="595" font-size="14">Kann das Logo größer?</text>
    <rect x="50" y="700" width="200" height="150" rx="10" ry="10" stroke="#333" fill="white" />
    <text x="120" y="750" font-size="14">Wichtig + Dringend</text>
    <text x="120" y="750" font-size="14">„Weltag der Bürokammer“</text>
    <rect x="750" y="50" width="200" height="150" rx="10" ry="10" stroke="#333" fill="white" />
    <text x="770" y="95" font-size="14">Dringlichkeit</text>
    <rect x="750" y="300" width="200" height="150" rx="10" ry="10" stroke="#333" fill="white" />
    <text x="770" y="345" font-size="14">Hoch</text>
    <rect x="750" y="500" width="200" height="150" rx="10" ry="10" stroke="#333" fill="white" />
    <text x="770" y="550" font-size="14">Niedrig</text>
    <rect x="750" y="700" width="200" height="150" rx="10" ry="10" stroke="#333" fill="white" />
    <text x="770" y="750" font-size="14">Niedrig</text>
    <line x1="120" y1="95" x2="370" y2="95" stroke="#000" stroke-width="2"/>
    <line x1="120" y1="345" x2="370" y2="345" stroke="#000" stroke-width="2"/>
    <line x1="120" y1="550" x2="370" y2="550" stroke="#000" stroke-width="2"/>
    <line x1="120" y1="595" x2="370" y2="595" stroke="#000" stroke-width="2"/>
    <line x1="770" y1="95" x2="770" y2="345" stroke="#000" stroke-width="2"/>
    <line x1="770" y1="345" x2="770" y2="550" stroke="#000" stroke-width="2"/>
    <line x1="770" y1="550" x2="770" y2="700" stroke="#000" stroke-width="2"/>
    <line x1="50" y1="300" x2="770" y2="300" stroke="#000" stroke-width="2"/>
    <line x1="50" y1="500" x2="770" y2="500" stroke="#000" stroke-width="2"/>
    <line x1="50" y1="700" x2="770" y2="700" stroke="#000" stroke-width="2"/>
    <line x1="50" y1="100" x2="770" y2="100" stroke="#000" stroke-width="2"/>
    <line x1="50" y1="550" x2="770" y2="550" stroke="#000" stroke-width="2"/>
    <line x1="50" y1="700" x2="770" y2="700" stroke="#000" stroke-width="2"/>
    <line x1="50" y1="350" x2="770" y2="350" stroke="#000" stroke-width="2"/>
    <line x1="50" y1="500" x2="770" y2="500" stroke="#000" stroke-width="2"/>
    <line x1="50" y1="700" x2="770" y2="700" stroke="#000" stroke-width="2"/>
    <line x1="50" y1="100" x2="770" y2="100" stroke="#000" stroke-width="2"/>
    <line x1="50" y1="350" x2="770" y2="350" stroke="#000" stroke-width="2"/>
    <line x1="50" y1="500" x2="770" y2="500" stroke="#000" stroke-width="2"/>
    <line x1="50" y1="700" x2="770" y2="700" stroke="#000" stroke-width="2"/>
  </g>
</svg>