<svg width="1200" height="800" viewBox="0 0 1200 800" xmlns="http://www.w3.org/2000/svg">
  <defs>
    <marker id="arrowhead" markerWidth="10" markerHeight="7" refX="8" refY="3.5" orient="auto">
      <path d="M0 0 L8 3.5 L0 7 L2 3.5 z" fill="black"/>
    </marker>
  </defs>

  <g id="diagram">
    <rect x="50" y="50" width="300" height="300" fill="white" stroke="black" stroke-width="2"/>
    <text x="60" y="75" font-size="18">Wichtig + Nicht dringend</text>
    <text x="60" y="125" font-size="14">Content – Strategie</text>
    <text x="60" y="155" font-size="14">Brand schärfen</text>
    <text x="60" y="185" font-size="14">SEO aufwärmen</text>
    <text x="60" y="215" font-size="14">Zielgruppen verstehen</text>

    <rect x="400" y="50" width="300" height="300" fill="white" stroke="black" stroke-width="2"/>
    <text x="410" y="75" font-size="18">Wichtig + Dringend</text>
    <text x="410" y="125" font-size="14">Kaffee</text>
    <text x="410" y="155" font-size="14">zählt nicht.</text>
    <text x="410" y="185" font-size="14">Aber hilft!</text>
    <polyline points="300,250 400,250" stroke="black" stroke-width="2" marker-end="url(#arrowhead)"/>

    <rect x="50" y="400" width="300" height="300" fill="white" stroke="black" stroke-width="2"/>
    <text x="60" y="425" font-size="18">Nicht wichtig + Nicht dringend</text>
    <text x="60" y="475" font-size="14">Merch-Ideen mit Glitzer</text>
    <text x="60" y="505" font-size="14">Buzzword – Bingo</text>
    <text x="60" y="535" font-size="14">TikTok – Tanz mit dem</text>
    <text x="60" y="565" font-size="14">#innovation #synergy #wow</text>

    <rect x="400" y="400" width="300" height="300" fill="white" stroke="black" stroke-width="2"/>
    <text x="410" y="425" font-size="18">Nicht wichtig + Dringend</text>
    <text x="410" y="475" font-size="14">Noch ein Last-Minute-Meeting</text>
    <text x="410" y="505" font-size="14">Kann das Logo größer?</text>
    <text x="410" y="535" font-size="14">LinkedIn – Post für</text>
    <text x="410" y="565" font-size="14">„Welttag der Büroklammer“</text>
    <polyline points="300,650 400,650" stroke="black" stroke-width="2" marker-end="url(#arrowhead)"/>

    <text x="150" y="720" font-size="16">hoch</text>
    <text x="850" y="720" font-size="16">hoch</text>
    <text x="30" y="420" font-size="16">niedrig</text>
    <text x="850" y="420" font-size="16">niedrig</text>
    <text x="750" y="120" font-size="18">Wichtigkeit</text>
    <text x="750" y="480" font-size="18">Wichtigkeit</text>
    <text x="950" y="720" font-size="18">Dringlichkeit</text>
    <text x="950" y="420" font-size="18">Dringlichkeit</text>
  </g>

  <path d="M10 750 L20 750" stroke="black" stroke-width="3" marker-end="url(#arrowhead)"/>
  <path d="M10 420 L20 420" stroke="black" stroke-width="3" marker-end="url(#arrowhead)"/>
</svg>