<svg width="1200" height="800" xmlns="http://www.w3.org/2000/svg">
  <g transform="translate(0, 0)">
    <rect x="0" y="0" width="1200" height="800" fill="#fff" stroke="black"/>
    <g transform="translate(100, 50)">
      <rect x="200" y="100" width="300" height="600" fill="#eee" stroke="black"/>
      <text x="250" y="120" font-size="12">System Architecture</text>
    </g>
    <g transform="translate(100, 150)">
      <text x="120" y="140" font-size="12">Goals:</text>
      <g transform="translate(0, 165)">
        <text x="140" y="170" font-size="12">Scalability</text>
        <text x="140" y="195" font-size="12">Reliability</text>
        <text x="140" y="220" font-size="12">Security</text>
        <text x="140" y="245" font-size="12">Maintainability</text>
      </g>
    </g>
    <g transform="translate(100, 350)">
      <text x="120" y="360" font-size="12">Notes:</text>
      <g transform="translate(0, 375)">
        <text x="140" y="385" font-size="12">Use Docker for</text>
        <text x="140" y="405" font-size="12">all services</text>
        <text x="140" y="425" font-size="12">CI/CD with GitHub</text>
        <text x="140" y="445" font-size="12">actions</text>
        <text x="140" y="465" font-size="12">Logs -> ELK Stack</text>
      </g>
    </g>
    <g transform="translate(100, 550)">
      <text x="120" y="560" font-size="12">External API</text>
      <g transform="translate(0, 575)">
        <text x="140" y="585" font-size="12">(Payment Provider)</text>
      </g>
    </g>
    <g transform="translate(300, 550)">
      <text x="320" y="560" font-size="12">Frontend</text>
      <g transform="translate(0, 575)">
        <text x="340" y="585" font-size="12">(React)</text>
      </g>
    </g>
    <g transform="translate(500, 550)">
      <text x="520" y="560" font-size="12">API Gateway</text>
      <g transform="translate(0, 575)">
        <text x="540" y="585" font-size="12">(Kong)</text>
      </g>
    </g>
    <g transform="translate(700, 550)">
      <text x="720" y="560" font-size="12">Backend</text>
      <g transform="translate(0, 575)">
        <text x="740" y="585" font-size="12">(Python/FastAPI)</text>
      </g>
    </g>
    <g transform="translate(900, 550)">
      <text x="920" y="560" font-size="12">Monitoring</text>
      <g transform="translate(0, 575)">
        <text x="940" y="585" font-size="12">(Prometheus + Grafana)</text>
      </g>
    </g>
    <g transform="translate(100, 350)">
      <text x="120" y="360" font-size="12">Notes:</text>
      <g transform="translate(0, 375)">
        <text x="140" y="385" font-size="12">Use Docker for</text>
        <text x="140" y="405" font-size="12">all services</text>
        <text x="140" y="425" font-size="12">CI/CD with GitHub</text>
        <text x="140" y="445" font-size="12">actions</text>
        <text x="140" y="465" font-size="12">Logs -> ELK Stack</text>
      </g>
    </g>
    <g transform="translate(100, 550)">
      <text x="120" y="560" font-size="12">External API</text>
      <g transform="translate(0, 575)">
        <text x="140" y="585" font-size="12">(Payment Provider)</text>
      </g>
    </g>
    <g transform="translate(100, 550)">
      <text x="120" y="560" font-size="12">External API</text>
      <g transform="translate(0, 575)">
        <text x="140" y="585" font-size="12">(Payment Provider)</text>
      </g>
    </g>
    <g transform="translate(100, 550)">
      <text x="120" y="560" font-size="12">External API</text>
      <g transform="translate(0, 575)">
        <text x="140" y="585" font-size="12">(Payment Provider)</text>
      </g>
    </g>
    <g transform="translate(100, 550)">
      <text x="120" y="560" font-size="12">External API</text>
      <g transform="translate(0, 575)">
        <text x="140" y="585" font-size="12">(Payment Provider)</text>
      </g>
    </g>
    <g transform="translate(100, 550)">
      <text x="120" y="560" font-size="12">External API</text>
      <g transform="translate(0, 575)">
        <text x="140" y="585" font-size="12">(Payment Provider)</text>
      </g>
    </g>
    <g transform="translate(100, 550)">
      <text x="120" y="560" font-size="12">External API</text>
      <g transform="translate(0, 575)">
        <text x="140" y="585" font-size="12">(Payment Provider)</text>
      </g>
    </g>
  </g>
</svg>