<svg width="1200" height="800" viewBox="0 0 1200 800" xmlns="http://www.w3.org/2000/svg">
  <text x="600" y="100" font-size="20">Eisenhower - Matrix - Marketing</text>
  <text x="80" y="400" font-size="14" transform="rotate(90 80,400)">Wichtigkeit</text>
  <text x="80" y="180" font-size="12">hoch</text>
  <text x="80" y="720" font-size="12">niedrig</text>
  <text x="600" y="770" font-size="14">Dringlichkeit</text>
  <text x="200" y="770" font-size="12">niedrig</text>
  <text x="1000" y="770" font-size="12">hoch</text>
  <line x1="700" y1="180" x2="700" y2="780" stroke="black" stroke-width="2"/>
  <line x1="200" y1="480" x2="1000" y2="480" stroke="black" stroke-width="2"/>
  <rect x="200" y="180" width="500" height="300" fill="none" stroke="black" stroke-width="2"/>
  <rect x="700" y="180" width="500" height="300" fill="none" stroke="black" stroke-width="2"/>
  <rect x="200" y="480" width="500" height="300" fill="none" stroke="black" stroke-width="2"/>
  <rect x="700" y="480" width="500" height="300" fill="none" stroke="black" stroke-width="2"/>
  <text x="400" y="200" font-size="14">Wichtig + Nicht dringend</text>
  <text x="250" y="230" font-size="12">• Content - Strategie</text>
  <text x="250" y="260" font-size="12">• Brand schärfen</text>
  <text x="250" y="290" font-size="12">• SEO aufräumen</text>
  <text x="250" y="320" font-size="12">• Zielgruppen verstehen</text>
  <text x="900" y="200" font-size="14">Wichtig + Dringend</text>
  <text x="750" y="230" font-size="12">• Kampagne retten</text>
  <text x="750" y="260" font-size="12">• Shitstorm beantworten</text>
  <text x="750" y="290" font-size="12">• Newsletter mit falschem Link fixen</text>
  <text x="750" y="320" font-size="12">• Chef will bis 14 Uhr "viral gehen"</text>
  <text x="400" y="580" font-size="14">Nicht wichtig + Nicht dringend</text>
  <text x="250" y="610" font-size="12">• Merch-Ideen mit Glitzer</text>
  <text x="250" y="640" font-size="12">• Buzzword - Bingo</text>
  <text x="250" y="670" font-size="12">• TikTok-Tanz mit dem Maskottchen</text>
  <text x="250" y="700" font-size="12">• Hashtag brainstormen #innovation #synergy #wow</text>
  <text x="900" y="580" font-size="14">Nicht wichtig + Dringend</text>
  <text x="750" y="610" font-size="12">• Noch ein Last-Minute - Meeting</text>
  <text x="750" y="640" font-size="12">• Kann das Logo größer?</text>
  <text x="750" y="670" font-size="12">• LinkedIn-Post für "Welttag der Büroklammer"</text>
  <text x="750" y="700" font-size="12">• Folie 27 schöner machen</text>
  <circle cx="950" cy="150" r="20"/>
  <path d="M 930 170 L 970 170 L 950 190 Z" stroke="black" fill="none"/>
  <line x1="930" y1="170" x2="970" y2="170" stroke="black"/>
  <line x1="950" y1="190" x2="930" y2="170" stroke="black"/>
  <line x1="950" y1="190" x2="970" y2="170" stroke="black"/>
  <text x="950" y="180" font-size="12">Kaffee</text>
  <text x="950" y="200" font-size="12">zahlt nicht. Aber hilft.</text>
  <circle cx="950" cy="210" r="3"/>
  <circle cx="952" cy="210" r="3"/>
  <circle cx="50" cy="650" r="20"/>
  <path d="M 30 670 L 70 670 L 50 690 Z" stroke="black" fill="none"/>
  <line x1="30" y1="670" x2="70" y2="670" stroke="black"/>
  <line x1="50" y1="690" x2="30" y2="670" stroke="black"/>
  <line x1="50" y1="690" x2="70" y2="670" stroke="black"/>
  <text x="50" y="680" font-size="12">Erlägen,</text>
  <text x="50" y="700" font-size="12">wenn das Internet wieder da ist.</text>
  <circle cx="50" cy="710" r="3"/>
  <circle cx="52" cy="710" r="3"/>
  <line x1="950" y1="700" x2="950" y2="730" stroke="black"/>
  <line x1="940" y1="700" x2="940" y2="730" stroke="black"/>
  <line x1="960" y1="700" x2="960" y2="730" stroke="black"/>
  <circle cx="950" cy="740" r="3"/>
  <circle cx="948" cy="740" r="3"/>
</svg>